<svg xmlns="http://www.w3.org/2000/svg" viewBox="0 0 24 24" fill="currentColor">
  <path d="M12 2.61c1.976 1.56 4.106 4.727 4.885 6.434.905 1.983.28 3.967-.534 4.984a4.12 4.12 0 0 1-.108.134c1.4-.238 2.873-.81 3.657-.81.49 0 .766.26.766.573 0 .855-2.395 1.742-4.19 2.216-.557.148-.372.56-.249.862.156.384.412.762.412 1.138 0 .877-.994 1.66-2.974 1.66-1.53 0-2.592-.376-3.665-1.334C9.892 18.464 8.83 18.84 7.3 18.84c-1.98 0-2.974-.783-2.974-1.66 0-.376.256-.754.412-1.138.123-.302.308-.714-.249-.862C2.694 14.706.3 13.82.3 12.964c0-.312.275-.573.766-.573.784 0 2.257.572 3.657.81a4.12 4.12 0 0 1-.108-.134c-.814-1.017-1.44-3.001-.534-4.984C4.86 6.376 6.99 3.21 8.966 1.649a.398.398 0 0 1 .495-.015A.398.398 0 0 1 12 2.61Z"/>
</svg>
