<svg xmlns="http://www.w3.org/2000/svg" viewBox="0 0 24 24" fill="currentColor">
  <path d="M12.986 17.502c-1.388 0-2.538-.462-3.449-1.387-.911-.924-1.367-2.074-1.367-3.448 0-1.374.456-2.523 1.367-3.448.911-.925 2.06-1.387 3.449-1.387 1.388 0 2.537.462 3.448 1.387.912.925 1.368 2.074 1.368 3.448 0 1.374-.456 2.524-1.368 3.448-.911.925-2.06 1.387-3.448 1.387Zm.483-14.49V0h4.847v15.396c0 2.63-.903 4.808-2.71 6.534C13.8 23.644 11.557 24 9.53 24v-4.572c.993 0 1.883-.204 2.67-.612.787-.408 1.399-.981 1.836-1.72.437-.738.656-1.577.656-2.518V3.012h-.723Z"/>
</svg>
