<svg xmlns="http://www.w3.org/2000/svg" viewBox="0 0 24 24" fill="currentColor">
  <path d="M7.03 0C3.15 0 0 3.15 0 7.03v9.94C0 20.85 3.15 24 7.03 24h9.94C20.85 24 24 20.85 24 16.97V7.03C24 3.15 20.85 0 16.97 0H7.03Zm9.94 2.16h.01c2.68 0 4.86 2.18 4.86 4.87v9.94c0 2.69-2.18 4.87-4.87 4.87H7.03a4.87 4.87 0 0 1-4.87-4.87V7.03c0-2.69 2.18-4.87 4.87-4.87h9.94ZM18.14 5a1.44 1.44 0 1 0 0 2.88 1.44 1.44 0 0 0 0-2.88ZM12 5.76a6.24 6.24 0 1 0 0 12.48 6.24 6.24 0 0 0 0-12.48Zm0 2.16a4.08 4.08 0 1 1 0 8.16 4.08 4.08 0 0 1 0-8.16Z"/>
</svg>
