<svg xmlns="http://www.w3.org/2000/svg" viewBox="0 0 24 24" fill="currentColor">
  <path d="M12 8.37a1.631 1.631 0 1 0-.003 3.263A1.631 1.631 0 0 0 12 8.37Zm0-3.462a5.094 5.094 0 1 1-.001 10.189A5.094 5.094 0 0 1 12 4.908Zm0 3.462a1.631 1.631 0 1 0-.003 3.263A1.631 1.631 0 0 0 12 8.37Zm3.691 8.297 2.292 2.293a1.732 1.732 0 0 1-2.45 2.449L12 17.875l-3.534 3.534a1.732 1.732 0 0 1-2.449-2.449l2.293-2.293a8.474 8.474 0 0 1-2.37-1.092 1.732 1.732 0 0 1 1.992-2.836 5.063 5.063 0 0 0 5.785.242 5.063 5.063 0 0 0 .35-.242 1.732 1.732 0 0 1 1.992 2.836 8.474 8.474 0 0 1-2.368 1.092Z"/>
</svg>
