<svg xmlns="http://www.w3.org/2000/svg" viewBox="0 0 24 24" fill="currentColor">
  <path d="M12 0A12 12 0 0 0 0 12a12 12 0 0 0 12 12 12 12 0 0 0 12-12A12 12 0 0 0 12 0Zm5.01 4.744c.688 0 1.25.561 1.25 1.249a1.25 1.25 0 0 1-2.498.056l-2.597-.547-.8 3.747c1.824.07 3.48.632 4.674 1.488.308-.309.73-.491 1.207-.491.968 0 1.754.786 1.754 1.754 0 .716-.435 1.333-1.052 1.604.048.293.07.597.07.907 0 2.79-3.25 5.051-7.258 5.051-4.006 0-7.257-2.264-7.257-5.05 0-.31.023-.615.07-.909a1.742 1.742 0 0 1-1.054-1.603c0-.968.786-1.754 1.754-1.754.463 0 .898.196 1.207.49 1.207-.883 2.878-1.43 4.744-1.487l.885-4.182a.342.342 0 0 1 .14-.197.35.35 0 0 1 .238-.042l2.906.617A1.214 1.214 0 0 1 17.01 4.744ZM8.418 12.12a1.36 1.36 0 1 0 0 2.72 1.36 1.36 0 0 0 0-2.72Zm6.44.025a1.36 1.36 0 1 0 .002 2.718 1.36 1.36 0 0 0-.002-2.718Zm-5.923 4.242a.34.34 0 0 1 .478-.48c.617.614 1.622.916 3.073.916h.01c1.451 0 2.46-.302 3.073-.916a.34.34 0 0 1 .478.48c-.753.75-1.89 1.09-3.551 1.09h-.01c-1.66 0-2.8-.34-3.551-1.09Z"/>
</svg>
