<svg xmlns="http://www.w3.org/2000/svg" viewBox="0 0 24 24" fill="currentColor">
  <path d="M2.633 14.229V18.3h2.056l2.009-4.071h1.347V18.3h1.878V5.7h-4.59A3.341 3.341 0 0 0 2 9.032a3.253 3.253 0 0 0 2.148 3.078l-1.515 2.119Zm1.878-5.197a1.425 1.425 0 0 1 1.425-1.454h1.109v2.907H5.936a1.425 1.425 0 0 1-1.425-1.453ZM15.381 5.7h-5.698v1.878h1.91V18.3h1.878V7.578h1.91V5.7Zm4.617 10.723a2.548 2.548 0 0 0 2.002-2.535V5.7H20.1v8.188c0 .4-.252.657-.633.657-.38 0-.633-.257-.633-.657V5.7h-1.9v8.188a2.548 2.548 0 0 0 2.002 2.535V18.3h2.963v-1.878h-1.9Z"/>
</svg>
