<svg xmlns="http://www.w3.org/2000/svg" viewBox="0 0 24 24" fill="currentColor">
  <path d="M12.206.793c.99 0 4.347.276 5.93 3.821.529 1.193.403 3.219.299 4.847l-.003.06c-.012.18-.022.345-.03.51.075.045.203.09.401.09.147-.001.305-.056.473-.118.09-.033.2-.073.311-.073a.77.77 0 0 1 .543.22.694.694 0 0 1 .206.539c-.006.28-.174.475-.363.602a2.04 2.04 0 0 1-.396.217 3.71 3.71 0 0 1-.342.13c-.063.022-.132.047-.2.075-.27.112-.498.293-.574.614-.062.265.014.354.078.45a8.13 8.13 0 0 0 2.102 2.228c.48.345 1.019.592 1.59.763.157.048.305.096.305.308a.605.605 0 0 1-.095.283c-.334.505-1.06.617-1.537.69-.065.01-.125.02-.172.03-.191.04-.39.058-.585.06-.105.002-.21.06-.312.18a2.92 2.92 0 0 1-.25.294c-.262.28-.6.428-.94.428-.173 0-.346-.035-.516-.105a5.3 5.3 0 0 0-.653-.224c-.252-.068-.519-.103-.792-.103-.358 0-.725.06-1.088.178-1.089.355-1.784 1.216-2.67 1.216h-.065c-.886 0-1.58-.861-2.67-1.216A3.48 3.48 0 0 0 8.77 17.4c-.273 0-.54.035-.793.103a5.3 5.3 0 0 0-.652.224c-.17.07-.343.105-.516.105-.34 0-.678-.148-.94-.428a2.92 2.92 0 0 1-.25-.293c-.103-.121-.208-.179-.313-.18a3.76 3.76 0 0 1-.584-.061c-.048-.01-.108-.02-.173-.03-.477-.073-1.203-.185-1.537-.69a.605.605 0 0 1-.095-.282c0-.212.148-.26.305-.308.57-.171 1.11-.418 1.59-.764a8.13 8.13 0 0 0 2.101-2.228c.065-.096.14-.185.079-.45-.076-.321-.305-.502-.574-.614a4.14 4.14 0 0 0-.2-.075 3.71 3.71 0 0 1-.342-.13 2.04 2.04 0 0 1-.396-.217c-.189-.127-.357-.322-.363-.602a.694.694 0 0 1 .206-.54.77.77 0 0 1 .543-.218c.11 0 .22.04.31.073.17.062.327.119.474.118.198 0 .326-.045.401-.09a21.8 21.8 0 0 1-.033-.57c-.104-1.628-.23-3.654.3-4.847C5.653 1.069 9.01.793 10 .793h.09l.117-.001Z"/>
</svg>
