<svg xmlns="http://www.w3.org/2000/svg" viewBox="0 0 24 24" fill="currentColor">
  <path d="M1.175 12.225c-.051 0-.094.046-.101.1l-.233 2.154.233 2.105c.007.058.05.098.101.098.05 0 .09-.04.099-.098l.255-2.105-.27-2.154c-.009-.06-.05-.1-.1-.1m-.899.828c-.06 0-.091.037-.104.094L0 14.479l.172 1.283c.013.06.045.094.104.094.057 0 .09-.035.104-.094l.2-1.283-.2-1.332c-.014-.057-.047-.094-.104-.094m1.811-.78c-.067 0-.12.055-.127.13l-.195 2.076.195 2.035c.008.075.06.13.127.13.066 0 .12-.055.128-.13l.22-2.035-.22-2.077c-.008-.074-.062-.13-.128-.13m.88-.702c-.074 0-.133.063-.14.15l-.177 2.778.177 2.648c.007.088.066.15.14.15.076 0 .135-.062.143-.15l.2-2.648-.2-2.778c-.008-.087-.067-.15-.143-.15m.874-.555c-.081 0-.147.072-.154.167l-.16 3.333.16 3.008c.007.096.073.167.154.167.082 0 .148-.071.155-.167l.18-3.008-.18-3.333c-.007-.095-.073-.167-.155-.167m.897-.318c-.088 0-.16.08-.166.184l-.142 3.651.142 3.174c.006.103.078.184.166.184.088 0 .161-.081.167-.184l.16-3.174-.16-3.651c-.006-.104-.079-.184-.167-.184m.9-.19c-.094 0-.172.088-.178.2l-.124 3.841.124 3.27c.006.113.084.2.178.2.093 0 .171-.087.178-.2l.14-3.27-.14-3.841c-.007-.113-.085-.2-.178-.2m.897-.151c-.1 0-.184.095-.189.217l-.107 3.992.107 3.332c.005.122.089.217.189.217.1 0 .184-.095.19-.217l.12-3.332-.12-3.992c-.006-.122-.09-.217-.19-.217m.903-.085c-.106 0-.195.103-.2.234l-.09 4.077.09 3.37c.005.13.094.234.2.234.107 0 .196-.104.2-.234l.1-3.37-.1-4.077c-.004-.131-.093-.234-.2-.234m2.697-1.162c-.06 0-.12.011-.175.033a5.305 5.305 0 0 0-5.26-4.661 5.238 5.238 0 0 0-1.61.252c-.19.063-.24.127-.24.253v9.542c0 .133.104.244.236.254h7.049a2.497 2.497 0 0 0 0-4.993"/>
</svg>
