<svg xmlns="http://www.w3.org/2000/svg" viewBox="0 0 24 24" fill="currentColor">
  <path d="M19.321 5.562a5.124 5.124 0 0 1-.443-.258 6.228 6.228 0 0 1-1.137-.966c-1.119-1.222-1.564-2.458-1.721-3.338h.009C15.893.386 15.95 0 15.95 0h-4.209v16.256c0 .222 0 .44-.01.655 0 .028-.003.054-.004.082 0 .014-.002.028-.002.042v.02a3.558 3.558 0 0 1-1.773 2.892 3.478 3.478 0 0 1-1.88.547 3.536 3.536 0 0 1-3.536-3.536 3.536 3.536 0 0 1 3.536-3.536c.37 0 .727.059 1.063.168v-4.29a7.676 7.676 0 0 0-1.063-.078c-4.252 0-7.7 3.45-7.7 7.7 0 2.59 1.279 4.878 3.24 6.266A7.643 7.643 0 0 0 8.072 24c4.252 0 7.7-3.449 7.7-7.7V8.048a10.167 10.167 0 0 0 5.946 1.909V5.764s-1.107.057-2.397-.202Z"/>
</svg>
