<svg xmlns="http://www.w3.org/2000/svg" viewBox="0 0 24 24" fill="currentColor">
  <path d="M23.977 6.416c-.105 2.338-1.739 5.543-4.894 9.609C15.9 20.342 12.999 22.5 10.553 22.5c-1.517 0-2.8-1.4-3.844-4.205l-2.1-7.7C3.783 7.79 2.92 6.39 1.994 6.39c-.188 0-.848.397-1.978 1.187L-.5 6.87a329.6 329.6 0 0 0 3.752-3.347c1.694-1.463 2.966-2.232 3.816-2.306 2.005-.193 3.239 1.179 3.703 4.114.5 3.168.848 5.139 1.04 5.913.578 2.625 1.213 3.937 1.905 3.937.538 0 1.346-.85 2.422-2.55 1.076-1.7 1.653-2.993 1.73-3.882.153-1.47-.423-2.205-1.73-2.205-.616 0-1.25.14-1.906.422C15.49 3.247 18.235 1.244 21.614 1.042c2.505-.15 3.685 1.694 3.363 5.374Z"/>
</svg>
